<svg width="158" height="25" viewBox="0 0 158 25" fill="none" xmlns="http://www.w3.org/2000/svg">
<path d="M7.73187 20.3906L12.2631 1.25H14.7944L15.3725 4.4375L10.5444 24H7.82562L7.73187 20.3906ZM5.40375 1.25L9.15375 20.3906L8.84125 24H5.81L0.763123 1.25H5.40375ZM19.3569 20.3125L23.06 1.25H27.7006L22.6694 24H19.6381L19.3569 20.3125ZM16.2162 1.25L20.7787 20.4688L20.6537 24H17.935L13.0756 4.42188L13.7006 1.25H16.2162ZM39.8 5.14062L33.6125 24H28.6281L37.0812 1.25H40.2531L39.8 5.14062ZM44.9406 24L38.7375 5.14062L38.2375 1.25H41.4406L49.9406 24H44.9406ZM44.6594 15.5312V19.2031H32.6437V15.5312H44.6594ZM54.1025 1.25L58.8525 11.625L63.6025 1.25H68.7119L61.2275 15.7188V24H56.4775V15.7188L48.9775 1.25H54.1025ZM89.3425 12.1094V21.125C88.9883 21.5521 88.4415 22.0156 87.7019 22.5156C86.9623 23.0052 86.0092 23.4271 84.8425 23.7812C83.6758 24.1354 82.2644 24.3125 80.6081 24.3125C79.1394 24.3125 77.8008 24.0729 76.5925 23.5938C75.3842 23.1042 74.3425 22.3906 73.4675 21.4531C72.6029 20.5156 71.9362 19.3698 71.4675 18.0156C70.9987 16.651 70.7644 15.0938 70.7644 13.3438V11.9219C70.7644 10.1719 70.9883 8.61458 71.4362 7.25C71.8946 5.88542 72.5456 4.73438 73.3894 3.79688C74.2331 2.85938 75.2383 2.14583 76.405 1.65625C77.5717 1.16667 78.8685 0.921875 80.2956 0.921875C82.2748 0.921875 83.8998 1.24479 85.1706 1.89062C86.4415 2.52604 87.4102 3.41146 88.0769 4.54688C88.754 5.67188 89.1706 6.96354 89.3269 8.42188H84.78C84.6654 7.65104 84.4467 6.97917 84.1237 6.40625C83.8008 5.83333 83.3373 5.38542 82.7331 5.0625C82.1394 4.73958 81.3685 4.57812 80.4206 4.57812C79.6394 4.57812 78.9415 4.73958 78.3269 5.0625C77.7227 5.375 77.2123 5.83854 76.7956 6.45312C76.379 7.06771 76.0612 7.82812 75.8425 8.73438C75.6237 9.64062 75.5144 10.6927 75.5144 11.8906V13.3438C75.5144 14.5312 75.629 15.5833 75.8581 16.5C76.0873 17.4062 76.4258 18.1719 76.8737 18.7969C77.3321 19.4115 77.8946 19.875 78.5612 20.1875C79.2279 20.5 80.004 20.6562 80.8894 20.6562C81.629 20.6562 82.2435 20.5938 82.7331 20.4688C83.2331 20.3438 83.6342 20.1927 83.9362 20.0156C84.2487 19.8281 84.4883 19.651 84.655 19.4844V15.4531H80.3737V12.1094H89.3425ZM112.801 12.0938V13.1719C112.801 14.901 112.567 16.4531 112.098 17.8281C111.629 19.2031 110.968 20.375 110.114 21.3438C109.26 22.3021 108.239 23.0365 107.051 23.5469C105.874 24.0573 104.567 24.3125 103.129 24.3125C101.702 24.3125 100.395 24.0573 99.2075 23.5469C98.0304 23.0365 97.0096 22.3021 96.145 21.3438C95.2804 20.375 94.6085 19.2031 94.1294 17.8281C93.6606 16.4531 93.4262 14.901 93.4262 13.1719V12.0938C93.4262 10.3542 93.6606 8.80208 94.1294 7.4375C94.5981 6.0625 95.2596 4.89062 96.1137 3.92188C96.9783 2.95312 97.9992 2.21354 99.1762 1.70312C100.364 1.19271 101.671 0.9375 103.098 0.9375C104.536 0.9375 105.843 1.19271 107.02 1.70312C108.207 2.21354 109.228 2.95312 110.082 3.92188C110.947 4.89062 111.614 6.0625 112.082 7.4375C112.562 8.80208 112.801 10.3542 112.801 12.0938ZM108.067 13.1719V12.0625C108.067 10.8542 107.957 9.79167 107.739 8.875C107.52 7.95833 107.197 7.1875 106.77 6.5625C106.343 5.9375 105.822 5.46875 105.207 5.15625C104.593 4.83333 103.89 4.67188 103.098 4.67188C102.306 4.67188 101.603 4.83333 100.989 5.15625C100.385 5.46875 99.869 5.9375 99.4419 6.5625C99.0252 7.1875 98.7075 7.95833 98.4887 8.875C98.27 9.79167 98.1606 10.8542 98.1606 12.0625V13.1719C98.1606 14.3698 98.27 15.4323 98.4887 16.3594C98.7075 17.276 99.0304 18.0521 99.4575 18.6875C99.8846 19.3125 100.405 19.7865 101.02 20.1094C101.635 20.4323 102.338 20.5938 103.129 20.5938C103.921 20.5938 104.624 20.4323 105.239 20.1094C105.853 19.7865 106.369 19.3125 106.786 18.6875C107.202 18.0521 107.52 17.276 107.739 16.3594C107.957 15.4323 108.067 14.3698 108.067 13.1719ZM135.854 12.0938V13.1719C135.854 14.901 135.619 16.4531 135.151 17.8281C134.682 19.2031 134.02 20.375 133.166 21.3438C132.312 22.3021 131.291 23.0365 130.104 23.5469C128.927 24.0573 127.619 24.3125 126.182 24.3125C124.755 24.3125 123.447 24.0573 122.26 23.5469C121.083 23.0365 120.062 22.3021 119.197 21.3438C118.333 20.375 117.661 19.2031 117.182 17.8281C116.713 16.4531 116.479 14.901 116.479 13.1719V12.0938C116.479 10.3542 116.713 8.80208 117.182 7.4375C117.651 6.0625 118.312 4.89062 119.166 3.92188C120.031 2.95312 121.052 2.21354 122.229 1.70312C123.416 1.19271 124.724 0.9375 126.151 0.9375C127.588 0.9375 128.895 1.19271 130.072 1.70312C131.26 2.21354 132.281 2.95312 133.135 3.92188C134 4.89062 134.666 6.0625 135.135 7.4375C135.614 8.80208 135.854 10.3542 135.854 12.0938ZM131.119 13.1719V12.0625C131.119 10.8542 131.01 9.79167 130.791 8.875C130.572 7.95833 130.25 7.1875 129.822 6.5625C129.395 5.9375 128.875 5.46875 128.26 5.15625C127.645 4.83333 126.942 4.67188 126.151 4.67188C125.359 4.67188 124.656 4.83333 124.041 5.15625C123.437 5.46875 122.921 5.9375 122.494 6.5625C122.078 7.1875 121.76 7.95833 121.541 8.875C121.322 9.79167 121.213 10.8542 121.213 12.0625V13.1719C121.213 14.3698 121.322 15.4323 121.541 16.3594C121.76 17.276 122.083 18.0521 122.51 18.6875C122.937 19.3125 123.458 19.7865 124.072 20.1094C124.687 20.4323 125.39 20.5938 126.182 20.5938C126.974 20.5938 127.677 20.4323 128.291 20.1094C128.906 19.7865 129.421 19.3125 129.838 18.6875C130.255 18.0521 130.572 17.276 130.791 16.3594C131.01 15.4323 131.119 14.3698 131.119 13.1719ZM147.203 24H142.25L142.281 20.3438H147.203C148.432 20.3438 149.469 20.0677 150.312 19.5156C151.156 18.9531 151.792 18.1354 152.219 17.0625C152.656 15.9896 152.875 14.6927 152.875 13.1719V12.0625C152.875 10.8958 152.75 9.86979 152.5 8.98438C152.26 8.09896 151.901 7.35417 151.422 6.75C150.943 6.14583 150.354 5.69271 149.656 5.39062C148.958 5.07812 148.156 4.92188 147.25 4.92188H142.156V1.25H147.25C148.771 1.25 150.161 1.51042 151.422 2.03125C152.693 2.54167 153.792 3.27604 154.719 4.23438C155.646 5.19271 156.359 6.33854 156.859 7.67188C157.37 8.99479 157.625 10.4688 157.625 12.0938V13.1719C157.625 14.7865 157.37 16.2604 156.859 17.5938C156.359 18.9271 155.646 20.0729 154.719 21.0312C153.802 21.9792 152.703 22.7135 151.422 23.2344C150.151 23.7448 148.745 24 147.203 24ZM144.906 1.25V24H140.219V1.25H144.906Z" fill="black"/>
</svg>
